<svg width="400" height="315" viewBox="0 0 400 315" fill="none" xmlns="http://www.w3.org/2000/svg">
<path d="M0.25 0H63.7V315H0.25V0Z" fill="#FF6610"/>
<path d="M139.996 0H256.996C292.396 0 320.296 5.10001 340.696 15.3C361.396 25.5 376.246 42 385.246 64.8C394.546 87.3 399.196 118.2 399.196 157.5C399.196 196.8 394.546 227.85 385.246 250.65C376.246 273.15 361.396 289.5 340.696 299.7C320.296 309.9 292.396 315 256.996 315H139.996V0ZM256.996 265.5C276.796 265.5 292.396 262.05 303.796 255.15C315.196 248.25 323.296 237 328.096 221.4C333.196 205.8 335.746 184.5 335.746 157.5C335.746 130.5 333.196 109.2 328.096 93.6C323.296 78 315.196 66.75 303.796 59.85C292.396 52.95 276.796 49.5 256.996 49.5H203.446V265.5H256.996Z" fill="#FF6610"/>
</svg>
